<svg xmlns="http://www.w3.org/2000/svg" viewBox="-99 180 1223 840"><path d="M284 1020c-29.333 0-62.833-10.08-100.5-30.25Q127 959.5 35 889.5q-45-34.5-71.75-56.75T-77 794.5t-18-31.25-4.5-35.25q0-28.5 17-45.25t68-35.25l419-154.5 3 84.5 222.5 154 333.5-169 44.5 21c9.67 4.333 14.08 9.75 13.25 16.25q-1.245 9.75-17.25 17.25L414 892.5Q361.5 917 333.25 924T284 931q-28 0-60.75-13.75T146 872.5q-47-33-90.75-67.5t-85.75-76.5a586 586 0 0 1-14-14.5q-7-7.5-13-15.5-5.5 7-8.25 14t-2.75 16q0 14 4.5 23t18 22q27.5 26.5 73.25 64T124.5 910q37.5 25 62.75 40.75t47.25 23T284 981q17.5 0 36.75-3.25t46-12.5 66.75-26.75A16437 16437 0 0 0 738 801a15709 15709 0 0 0 304-145c15.67-7.667 26.83-15.583 33.5-23.75s10-18.25 10-30.25c0-8.667-2.67-15.833-8-21.5s-11.17-9.833-17.5-12.5l-96-41.5v-39l112 51c14 6.333 25.42 14.833 34.25 25.5s13.25 24.5 13.25 41.5q0 24.5-14.25 44.5c-9.5 13.333-26.08 25.833-49.75 37.5q-123 60-236.5 114.75T615.75 900.5 457 971q-71 29.5-109.5 39.25T284 1020m-13.5-134.5v-80h28v80Zm28.5-7 175.5-69q11.5-4.5 19-15.75T501 771v-25q0-22-17-34.5L324 594q-8-6-19.25-7.25T284 588.5L114 643q-35 11.5-35 37.5v30q0 21 13 31.5l174.5 134q6 5 15.75 5.25T299 878.5M281.5 823 73 670.5 91 649l194.5 142.5 213-76L508 741ZM642 720.5V431l40 2v287.5Zm20.5 27q-20.5 0-54.75-14.25T535.5 697t-72.25-45.5-55.75-42.75T386 581.5V314q0-6.5 3-12.75t13-9.75q114-42.5 181.25-66.75t99.25-34.5 41-10.25q15 0 46.25 9t68.75 23 71.75 30.25 56.5 30.75T989 297q0 96-1.25 155.75T983 545.5 972 593t-19.5 20Zm4.5-45 268.5-126q4-2 6.5-15.25t4-43 2.25-81T949 308.5q0-3.5-19.5-13.75t-49.25-23T819 247t-56.25-20-33.75-8q-5 0-23 5.5t-53.25 18T562 275.25 426 325.5V570q0 9 18 25t47 34.5 62 35 63.25 27.25T667 702.5M659.5 444Q601 411.5 557 389.25T478.5 352t-65-25.5L428 290q27.5 8.5 59 22.25T560.75 347 662 399.5Q741.5 366 814 341t151.5-45l10.5 36.5q-81 22-156 48.25T659.5 444"/></svg>