<svg xmlns="http://www.w3.org/2000/svg" viewBox="172 80 680 1040"><path d="M512 1120c-69.333 0-129.417-13.67-180.25-41q-76.25-40.995-118-116.25Q172 887.5 172 785.5q0-91 36-185.75T308.5 402.5L512 80l203.5 322.5Q780 505 816 599.75t36 185.75q0 102-41.75 177.25-41.75 75.255-118 116.25c-50.833 27.33-110.917 41-180.25 41m7.5-126.5q-65 0-116.75-28.25T321.25 887 291.5 771q0-9.5 5.5-15.5t14.5-6q8.5 0 14.25 5.75t5.75 14.25q0 83 54 130.75t136 53.25q8.5.5 14 6t5.5 14-6 14.25-15.5 5.75M512 1080c62 0 115.417-11.83 160.25-35.5s79.333-57.583 103.5-101.75Q812 876.5 812 785.5q0-86-34-174.25T682 424.5l-170-271-170 271q-62 98.5-96 186.75T212 785.5q0 91 36.25 157.25c24.167 44.167 58.667 78.08 103.5 101.75S450 1080 512 1080"/></svg>