<svg xmlns="http://www.w3.org/2000/svg" viewBox="79 80 866 1040"><path d="M463.5 848.5q-80 0-149.75-29.75t-122.5-82.5-82.5-122.5T79 464q0-79.5 29.75-149.25t82.5-122.5 122.5-82.5T463.5 80t149.75 29.75 122.5 82.5 82.5 122.5T848 464q0 80-29.75 149.75t-82.5 122.5-122.5 82.5T463.5 848.5m405 196c7.667-5.67 8.667-12.5 3-20.5L837 974.5q-3.5-5.5-9-7t-11 2.5q-11.5 8-2.5 20.5l34 49c2.667 3.67 5.833 6 9.5 7s7.167.33 10.5-2m-15 75.5-266-381 91.5-64 266 380.5ZM426 479q16 0 16-24 0-11.5 5-20.5t14.5-15.5q12-8 12-17.5 0-15-16.5-15t-32 21.25T409.5 455q0 24 16.5 24m89.5 224q51.5 0 86.75-22.75t57-59 31.5-77.75 9.75-79q0-44.5-15.5-91.25t-43.25-86.75T577.5 222 499 197.5q-45.5 0-73 19.75t-44.75 50a605 605 0 0 0-31 62.5Q336.5 362 318 386.5a2453 2453 0 0 1-39.5 51.25q-20 25.25-33.25 55.5T232 565q0 33.5 15 62t41.75 46 62.75 17.5q18 0 33.25-4.25T419 682q24.5 0 48.25 10.5T515.5 703M480 561.5q-29 0-53.25-14.25t-38.5-38.5T374 455.5t14.25-53 38.5-38.25T480 350q29.5 0 53.25 14t38 38 14.25 53.5q0 29-14.25 53.25T533 547.25t-53 14.25"/></svg>