<svg xmlns="http://www.w3.org/2000/svg" viewBox="-45 80 1115 1040"><path d="M252 1120c-58.333 0-109.833-11.58-154.5-34.75q-67-34.755-105-96-38-61.25-38-141.25 0-77 42-149.5 35.5-61 82.25-101t93.75-65 84.25-40.5T311 464q20-15 40.5-51t47.25-82.75 64.75-94T557 151.5Q663 80 779 80q55 0 110 15.25t99.75 41c29.83 17.167 52.42 36.417 67.75 57.75 8.67 31 13 62.333 13 94 0 43-7.67 86.417-23 130.25s-36.25 84.333-62.75 121.5Q944 595.5 893 630.5q-25.5 17.5-60.75 35T762 698.25a18814 18814 0 0 0-60 26.25q-25 11-30 16.5-9 9.5-16.5 24T638 806q-62 163-162.5 238.5c-67 50.33-141.5 75.5-223.5 75.5m-47.5-178-5-39.5q35.5-4 57-33L288 895q-33 40.5-83.5 47M216 809l-8.5-39.5q17.5-4 31-13.25T263 731.5l33 23q-15 21.5-35.25 35.25T216 809m166 97-15-37q31.5-12.5 48-47l36 16.5Q429.5 887 382 906m-5.5-202.5L369 665q20.5-3.5 35.25-15.5t25.75-32l35 18.5q-30.5 58.5-88.5 67.5m150-5-7-38.5q40-7 60-46.5L615 632q-29 57-88.5 66.5M252 1080c78 0 146.167-24.33 204.5-73Q544 934 602 791.5q14-34 21.25-49t18.75-28q5-5.5 23.75-15T711 678t56-25.5 56.75-27.5 46.75-27.5q45.5-31.5 81.5-82t56.75-110.25c13.83-39.833 20.75-78.917 20.75-117.25 0-25.667-3.17-51-9.5-76q-21-25.5-60-46.5t-86.5-33.25T779 120q-52 0-101 16.75t-98.5 47.75q-49 30.5-84.25 75.25T433.5 351.5a67072 67072 0 0 1-48 85q-21.5 38-43.5 54-27.5 20.5-66.75 37.5T192 567.25 106 625t-75 93.5Q-5.5 782.5-5.5 848q0 68.5 32.5 121t90.5 81.75T252 1080m333.5-536L569 507.5q33.5-15.5 46-47l37.5 15Q633 522 585.5 544m134 48v-39q39 0 67.5-37l31 24.5Q779.5 592 719.5 592M755 445l-18.5-34q16-8.5 25.75-21.25T777 361l38.5 11q-8 24-23.25 42.5T755 445m140.5-94L867 324q11-12 17.25-27t6.25-36.5H930q0 28.5-9.25 50.75T895.5 351"/></svg>