<svg xmlns="http://www.w3.org/2000/svg" viewBox="-5 80 1035 1040"><path d="M505.5 1120c-14 0-27.667-2.83-41-8.5-58.333-24.67-115.5-52.33-171.5-83q-84-46-177-108Q93 905 81 881t-12-52V546.5q-37.5-32.5-56-75T-5.5 391q0-47 31-92.25T111 214t125.5-69.75T387.75 97 550.5 80q101.5 0 188.75 26.25t152.5 72.5 101.5 107.5c24.17 40.833 36.25 84.583 36.25 131.25 0 31-6.42 60.167-19.25 87.5Q991 546 946.5 581.5v215q0 26-10.75 47.5T903 883q-45.5 36-104 75.25t-123.75 78.25c-43.5 26-87.583 51.33-132.25 76-5 2.67-10.5 4.58-16.5 5.75s-13 1.75-21 1.75m-67.5-63.5q31 15 52 0c14-10 21-27.67 21-53v-298q27.5-5 49-21t33.75-39.5T606 595q0-37.5-28.25-78.5t-76-79.25-107-69-122-49T152 301q-65.5 0-91.5 24t-26 63q0 38 16.75 73T109 528.5V821q0 21.5 4.25 36T133 883q47.5 35.5 125.75 80c52.167 29.667 111.917 60.83 179.25 93.5"/></svg>