<svg xmlns="http://www.w3.org/2000/svg" viewBox="-36 130 1097 940"><path d="M30.5 1070c-22.333 0-39.083-7.17-50.25-21.5s-16.75-29-16.75-44V603L298 354q25.5 22.5 53.5 22.5 19 0 32.25-9t13.25-20q0-9.5-8.5-19.5T361 306l309-176q52.5 6.5 112.5 31.25T899 222t99.75 76.75c28.83 27.167 49.42 53.75 61.75 79.75V796q0 24-13.5 44.5t-42 26.5L78 1064.5q-16.5 3.495-26.5 4.5c-6.667.67-13.667 1-21 1m170-174.5q-24 0-40.75-16.75T143 838q0-23.5 16.75-40.25T200.5 781q25.5 0 41.25 16.25T257.5 838q0 24-16.75 40.75T200.5 895.5m12-270.5q-23 0-39-9t-16-24.5l-2-7q0-16.5 13.75-29.75t34.5-20.75 41.25-7.5q23 0 40 9t20.5 25q0 18-14.5 32.75t-36 23.25-42.5 8.5m318 184q-37.5 0-64.25-26.75T439.5 717.5q0-37 26.75-63.75T530.5 627q37 0 63.75 26.75T621 717.5q0 38-26.75 64.75T530.5 809m-494 221q7 0 15.5-1.5c5.667-1 12.167-2.17 19.5-3.5L990 829.5c9-2 16.33-6.333 22-13s8.5-14.667 8.5-24V388c-12.33-21.667-31.25-44.083-56.75-67.25q-38.25-34.75-87.25-66t-101-53.5T678 171.5L427 314q10 16 10 33.5 0 29-25.25 49t-60.25 20q-25.5 0-52.5-13.5L3.5 623v367.5c0 14 2.833 24.08 8.5 30.25s13.833 9.25 24.5 9.25m-46-391.5v-40q20.5 0 70-8.25T180 567.5t152.25-33a23324 23324 0 0 0 169.25-38.75q87-20.25 170.5-40.5t155.5-38 125-31.5c35.333-9.167 61.17-16.083 77.5-20.75l11 38.5c-16.67 4.667-42.667 11.667-78 21q-53 14-125.75 32T680.5 494.75 508.75 535.5a16183 16183 0 0 1-171 39q-83.25 18.5-154 33T62.5 630.25t-72 8.25m882.5 123q-24.5 0-42-17.5t-17.5-42 17.5-42 42-17.5 42 17.5 17.5 42-17.5 42-42 17.5m-164-217q-36.5 0-63.5-15.5t-27-39.5q-7-29.5 11.25-54.25t50.25-40T745.5 380q34 0 60 14.75t32 39.75q0 32.5-17.75 57.25T773 530.5t-64 14M680 295q-24 0-38.5-9.25T627 264q0-13 14.5-22.25t38.5-9.25q23.5 0 38 9.25T732.5 264q0 12.5-14.5 21.75T680 295"/></svg>