<svg xmlns="http://www.w3.org/2000/svg" viewBox="-113 80 1250 1040"><path d="M603.5 1120c-21.333 0-37-5.17-47-15.5s-15-23-15-38c0-5.67.333-13.58 1-23.75a4102 4102 0 0 1 2.25-32.25q1.25-17 1.25-30.5 0-35-7.5-92.5t-28-134.5q0 24.5-6.75 54.5T490 869.25 483 931q0 10.5.75 33.25T485 1008c.333 14 .5 22.83.5 26.5 0 16.33-4.75 28.17-14.25 35.5S445 1081 421 1081q-18 0-30.75-5.25T377.5 1054c0-7.33.833-18.42 2.5-33.25a6583 6583 0 0 0 5-46q2.5-23.75 2.5-39.25 0-50-11.75-89.75T346 773t-37-63.25-33.5-61-19-65.75L49 505q-12 6-25.25 7.25T-.5 513.5q-25.5 0-51.5-19t-43.5-45-17.5-47q0-17.5 9.25-33T-76 342q21-13.5 36.75-25.25A434 434 0 0 0-9 292q14.5-13 30.5-30.5Q85 193 137.75 159t94.75-34q33 0 54 7.25t41 26.25q29-16.5 57.25-24T448 127q23.5 0 37.25 11.5T499 171q0 26.5-20.75 58.5T429.5 282q10 2.5 21.25 4t22.75 1.5H910q54.5 0 98.5 16 43.995 16 69.75 49.5c17.17 22.333 25.75 50.833 25.75 85.5q0 11-.75 32t-1.5 46-.75 48.5c0 20.667.33 38.833 1 54.5q1.005 23.5 3 47.5c5 3.333 9.92 10.417 14.75 21.25S1128.67 711 1132 724s5 25 5 36c0 11.333-.83 23.5-2.5 36.5s-3.75 24.083-6.25 33.25-5.42 13.75-8.75 13.75c-4.33 0-9-3.917-14-11.75s-9.83-14.417-14.5-19.75c-15.33-18.667-25.25-32.833-29.75-42.5q-6.75-14.5-6.75-32 0-25 3.75-39.75c2.5-9.833 5.42-16.583 8.75-20.25-.33-2.667-1-7.833-2-15.5q-1.5-11.5-3-25.25c-1-9.167-1.83-17.417-2.5-24.75q-31.995 73-51.75 129.5Q988 798 979.25 845t-8.75 93c0 44.333-7 78.33-21 102s-39.667 35.5-77 35.5c-18 0-33-4.42-45-13.25s-18-20.75-18-35.75c-3.333.33-6.917.67-10.75 1s-7.25.5-10.25.5c-17.333 0-31.583-5.08-42.75-15.25S729 989.833 729 974.5q0-13.5 1-35.5t1-37q0-7.5-1.5-25.25t-3-38.5T725 801h23q0 18 9 47.25t9 53.75q0 19.5-1.25 35.5T763.5 966q0 10 7.5 17.5t23 7.5q23 0 28.75-28t5.75-76.5q0-31-3.75-64.25T817 761.5q-21.5 8-54 12t-52 4q-8 28.5-16.25 55.25T676.5 883q0 48.5 6.25 93.75Q689 1022.005 689 1048q0 36-23 54t-62.5 18m-567-622.5L-46 488l-56-76.5 40.5-65.5 88-59q23.5 25 34 59.75T71 411q0 28.5-8.75 53.75T36.5 497.5m-49-83.5q13 0 22.75-9.75T20 382q0-8.5-6.75-11t-25.75-2.5-25.75 2.5-6.75 11q0 12.5 9.75 22.25T-12.5 414m619 666c14.667 0 26.083-2.67 34.25-8q12.25-7.995 12.25-24c0-7.33-1.083-20.17-3.25-38.5q-3.25-27.5-6.5-63.75A809 809 0 0 1 640 873.5a1297 1297 0 0 0 24.25-62.25Q675.5 780 686 739q22 0 49.5-2.5t53.25-7.75 41.75-12.25q11 26 17.75 59.5t10 65.75T861.5 897q0 27-5 50.25t-10 40.5c-3.333 11.5-5 20.08-5 25.75 0 6.67 3.167 12 9.5 16q9.5 6 21.5 6c24.333 0 40.083-7.67 47.25-23q10.75-23 10.75-74.5 0-45.5 9.75-94.25T971 734.5t55.5-140q-31.5-23-42.5-45t-11-51q0-30.5 15-66.25c10-23.833 23.83-46.917 41.5-69.25-8.33-8.667-19.67-15.667-34-21q-21.5-8-45.25-11.75T907 326.5a211.3 211.3 0 0 0-24 42.75Q873.5 392 873.5 415q0 83.5-25 129t-71 45.5q-28.5 0-63.5-16.25t-70-44-64.75-62-48.75-70.5T509 327.5h-35.5q-13 0-26.25-3.75T423 315q13 23.5 20.5 41.5t7.5 25q0 11-10 27.75T416.25 443t-29.5 28.5T362 483q-7.5 0-23-6.5t-32.75-16T275 441t-19.5-17q-3-4.5-6.25-22.5T244 360.75t-2-41.25q0-33.5 8.5-63.25t23.75-48.5T309.5 189q-10-10-27.75-17t-44.25-7q-24.5 0-49.75 10.75t-58.5 37.5T46.5 288L-3 336q-38 12-54 32.75t-16 33.75q0 14.5 12.25 31.25T-31.5 462t31 11.5q10 0 23-2.5t21-10.5l241.5 91q4 16.5 11.25 36T309 620q65.5 0 114.5 18t82.75 55.5 52.75 96q12.5 38 18.5 85.5t6 105q0 15.5-2.75 39.5T578 1057c0 9 2.167 15.08 6.5 18.25s11.667 4.75 22 4.75m-434-756.5q-12.5 0-22-10.25T141 289q-11 0-14.75-11.5T122.5 260l50-5q13 .5 22.25 10.25T204 289t-9.25 24.25-22.25 10.25m604 570q-8 0-15-14.5t-7-31.5q-25-9-42-23.75T684 792.5l16-34 126-22 19 73q0 38-3.75 56.5t-13.75 18.5q-7.5 0-16.5-11.5t-13.5-27q0 17.5-5.75 32.5t-15.25 15M586.5 691q-21.5 0-40-19.5t-18.5-47q0-13.5 5-28.75T546.75 570t19.75-10.5q12.5 0 24.25 12t22.75 26q8.5 11 19 17.75T643 637q0 19-18 36.5T586.5 691M135 177q11-16.5 19-30.5t13-25Q185.5 80 198 80q15 0 15 27.5 0 27-12 49.5Zm210.5 99.5q13 0 29.75-9.75T407.5 242t25.75-31.25 10.25-29.25q-32.5 0-61.5 10t-47.25 26T316.5 251q0 11 8.25 18.25t20.75 7.25m-23-104-68-30.5q7-13 22-19.5Q289 104 302.25 92T323 80q7 0 10.25 9.25T336.5 113t-3.5 30.5-10.5 29m577 522q-15.5 0-28.75-13.25T857.5 654q0-11.5 8-17t16-15.5q6.5-8.5 15-17T915 596q12.5 0 20.5 16.75t8 31.75q0 21-13.75 35.5t-30.25 14.5"/></svg>