<svg xmlns="http://www.w3.org/2000/svg" viewBox="193 78 639 1042"><path d="M512 1120c-46 0-87.5-4.42-124.5-13.25s-66.5-20.67-88.5-35.5-33.833-31.25-35.5-49.25l-71-812.5H233l68.5 797.5c1.333 14.67 12.167 27.5 32.5 38.5q30.5 16.5 78 25.5t100 9 100-9 78-25.5c20.333-11 31.167-23.83 32.5-38.5L791 209.5h40.5l-71 812.5c-1.333 18-13.083 34.42-35.25 49.25s-51.75 26.67-88.75 35.5S558 1120 512 1120m-86.5-129q-20-4-31.75-18.5T380.5 938l-14-190.5Q366 741 370 736t10.5-5q15 0 16 14l14 191q1.5 22 22.5 25.5 10.5 1.5 10.5 14 0 9-5.5 13t-12.5 2.5M512 637.5q-82 0-146.5-12.25t-101.25-36-36.75-57.75 37-57.5 101.25-36T512 425.5 658.25 438t101.25 36 37 57.5-36.75 57.75-101 36T512 637.5m0-40q69 0 123-8.5t85.25-23.5 31.25-34-31.5-34-85.5-23.5-122.5-8.5q-68 0-122.25 8.5T304 497.5t-31.5 34 31.25 34 85.5 23.5T512 597.5m0-255.5q-90.5 0-163-17t-114.5-47-42-68.5q0-38 42-67.75T349 95t163-17q91 0 163.25 17t114.25 46.75 42 67.75q0 38.5-42 68.5t-114.25 47T512 342m0-39q77.5 0 139.5-13.75T750 254t36.5-44.5q0-22.5-36.5-43.75t-98.75-35T512 117t-139.25 13.75-98.75 35-36.5 43.75q0 23 36.5 44.5t98.75 35.25T512 303"/></svg>