<svg xmlns="http://www.w3.org/2000/svg" viewBox="-68 105 1160 990"><path d="M533 1095c-82 0-156.583-12.33-223.75-37S184.333 998.333 136 953Q63.5 885 24.5 790.5t-39-209q0-43.5 1.75-64.75t8.25-31.25q8 12.5 28.75 39t59 58.25 98.5 61 146.75 48T533 710.5t204.5-18.75 146.75-48 98.5-61c25.5-21.167 45.17-40.583 59-58.25s23.42-30.667 28.75-39c4.67 6.667 7.5 17.083 8.5 31.25q1.5 21.25 1.5 64.75 0 114.5-39 209T930 953c-48.333 45.333-106.083 80.33-173.25 105S615 1095 533 1095M140.5 579.5q-8.5-36.5-24.75-65.25t-35.5-45.75-37.25-17q-9 0-15 10.75T22 495q0 20.5 5.5 42.5l-39 9Q-18 519-18 495q0-37 16.25-60.25T43 411.5q29 0 56.25 21t48.5 56.75 31.75 81.25Zm142 68q-7.5 0-12.75-8.75T264.5 618t5.25-20.75 12.75-8.75q7 0 12.25 8.75T300 618t-5.25 20.75-12.25 8.75M533 1056c75.667 0 144.667-11.17 207-33.5S856 968 901 926q67.5-63 104-151.75c24.33-59.167 36.5-125.583 36.5-199.25v-8.5l7 12.5q-43.5 37-93 68.25T845.25 701.5 708 737t-175 12.5q-98 0-174.75-12.5t-137.5-35.5-110.25-54.25-93-68.25l7-12.5v14Q24.5 690 61.25 778T165.5 928t161 95 206.5 33M361 620q-7 3-15.25-2.75T332.5 601q-5-11.5-4-21.75T336 566q7-3 15 2.75T364 585q5.5 11.5 4.75 21.75T361 620m-182.5-44q4-11.5 7.5-24.75t7-31.25q12-57 30.5-85.5t54-48.5l17.5 32.5q-28 16-39.75 37.25T232 524.5l-6.5 26Zm20-77q0-60-42-105l27-27q24.5 27.5 36.5 60.75T232 498ZM159 671q-15.5-18.5-26.75-40.5T115 583l347-184q30.5 42.5 43.25 83.75T518 553l-41.5-16q0-39.5-28-85.5l-285 151q17 36 48 68.5ZM8.5 581.5q-37-42-56.75-84T-68 419q0-48.5 32.75-80.25T43 307q16 0 34.5 4.5 13-43 51.5-66t87-23q40.5 0 68.5 13.5 13.5-14 33.75-20.75T358 208.5q49 0 83 37.75t56 111.5 35 182.75h-30q-21-103-43.5-167.25t-49.25-94.5T348 248.5q-20 0-37 8.75t-25 22.25q-13.5-8-30.25-12.5T216 262.5q-44 0-76.5 26.5T99 352.5Q86.5 349 75.5 348t-24-1Q18 347-5 367.5T-28 419q0 61 66.5 136Zm417-11.5q-5 6-15 4.25T392 565q-9.5-8.5-13-18.25t1-14.75q5-5.5 15-4t18.5 9q10 8.5 13.25 18t-1.25 15M725 705q-18.5-.5-46.5-8t-57.75-18.75-55.25-22.75-40-20l21-36q14.5 9 38.25 20.25T636 642t52.25 18.75T729 670.5Zm-88.5-31.5q-9-21-9-48.5 0-28 8.5-55.5l38.5 12.5q-3 11.5-5 22.25t-2 20.25q0 9 1.75 17.25T674.5 657ZM105 269.5q0-48.5 21-84.75t55.75-56.5T256.5 108q22 0 45.25 7t44.75 22L324 170q-31.5-22-67.5-22-31.5 0-56.75 15.75t-40 43.25T145 269.5Zm284 450L352 704l22.5-54q26-62.5 59.75-93.75T512 519q10.5-42.5 37.5-66t62-23.5q26.5 0 52.5 13 10-10 22.25-14.25T711 424q35 0 59.5 23.5 9.5-5 19.75-8t20.75-3q29 0 58.5 14.25t51 38.75q16 18 46 26c20 5.333 48.33 8 85 8l-27.5 40c-18.67 0-36.333-1.667-53-5q-25-5-45.25-15.5t-35.25-27q-16-18.5-37.5-29t-42-10.5q-9.5 0-22 2.75T765 490q-12.5-14-25.75-20T711 464q-12.5 0-21.5 4.5t-19 12.5q-8-6.5-23.5-9t-27.5-2.5q-29.5 0-50.25 21.25T546 554q-30 0-53.75 9.75t-43.25 34-37.5 67.75Zm339 2.5-39.5-7q9.5-51.5 30.25-92.25t48.75-64.25T826 535q32.5 0 50 26.25T893.5 629q0 11-1.5 23.5t-4 26.5l-39-8.5q4.5-25.5 4.5-41.5 0-26.5-7.5-40.25T826 575q-19 0-38.75 19.25t-35.75 52.5T728 722M590 469l-39-9q8-30 8-60 0-63-37-122l-45.5 30-45-18 100-68.5Q599 303.5 599 401q0 33.5-9 68M274.5 241q17.5-62.5 54.25-99.25T429 105q40.5 0 76.5 19.5 28-12.5 56.5-12.5 44.5 0 77 28.75t42 69.75l-20 54q-12-1-18.25-15t-8.75-32q-4-28-24-46.75T562 152q-14.5 0-27.75 4.25T503.5 170.5q-18.5-13-36.25-19.25T429 145q-44 0-72 25.25T313 252Zm492 184q-5-5.5-1.75-15t12.75-17.5 20-9.75 14.5 3.75q4.5 6 1.5 15.5T801 419.5t-19.5 9.25-15-3.75m93 30.5-32.5-15q5.5-11 14-16.75t15.5-2.25q6 3 7.25 13t-4.25 21m49.5 47q-7 0-12.25-8.75T891.5 473t5.25-20.75T909 443.5q7.5 0 12.75 8.75T927 473t-5.25 20.75T909 502.5m170.5 52.5-38.5-10q5.505-23 8.25-39.5c1.83-11 2.75-21 2.75-30q0-30-13.5-49.5T995 394q-27.5-11.5-43.75-26T928 323q-7.5-32-34.5-46t-63-14.5q0-18-13.25-32.25t-34.5-22.5T737 199.5q-30 0-42.75 15t-12.75 50q0 13-10.25 17.75T641.5 287q-20 0-34.75 3.5t-34.75 12l-14.5-39q26.5-10.5 46-13.5t38.5-3q4-42.5 28.25-65T737 159.5q40.5 0 72.25 17t48.25 48q41.5 5 71.75 31.5T968 316.5q4 16.5 13 24.25t29.5 16.25c54.33 22.667 81.5 62.167 81.5 118.5 0 11.333-1.08 23.5-3.25 36.5s-5.25 27.333-9.25 43M969 529.5q21-10 32.5-25.5c7.67-10.333 16-25.167 25-44.5l-283-151Q729 337 722 370t-7 75.5h-40q0-56.5 12.5-102.75t42-87.25L1075 440c-8 33.667-22.67 62.833-44 87.5Zm96-116.5-37-15c7.67-18.667 11.5-35.5 11.5-50.5q0-31-15-55.75c-10-16.5-23.58-29.667-40.75-39.5Q958 237.5 926 237.5q-31 0-54.5 20l-25.5-31q35-29 80-29 43 0 77.75 20c23.17 13.333 41.58 31.333 55.25 54s20.5 48 20.5 76q0 15.5-3.75 32.25c-2.5 11.167-6.08 22.25-10.75 33.25"/></svg>