<svg xmlns="http://www.w3.org/2000/svg" viewBox="67 80 890 1040"><path d="M214 1120c-9 0-21.5-5.33-37.5-16s-32.417-23.58-49.25-38.75-31.083-30-42.75-44.5Q67 999 67 987.5q0-10 14.25-18t33.75-21 34.5-37.5q-5-17.5-7-33.25t-2-29.75q0-41 13.25-72.25t32.5-56.75T225 671.25t32.75-44.75 13.25-48q0-15.5-.5-48.5t-.5-71.5q0-60 25.5-119.75T363.75 230t94.5-78.5T562.5 122q54 0 87.5 16.5t53.25 40.75 33.25 48.25 28 38.5q40 41 69 89t29 105q0 60-21 104.75T772 653.5q-6.5 26-27 51.25t-46.5 46-49 33.25q-21 11.5-47.25 17t-51.75 10.5T506 827q-18.5 10-38.75 31t-40.75 57.5q-16.5 30-32.75 51t-38.5 32c-14.833 7.33-34.25 11-58.25 11h-7c-2.333 0-4.833-.17-7.5-.5 0 14-3.917 29.67-11.75 47Q259 1081.995 243 1101c-10.667 12.67-20.333 19-29 19m-80-165q-30.5-28.5-48.25-63T68 826q0-33.5 12.5-64.5t29-61 29-60.5 12.5-62.5q0-29.5-8.75-63t-8.75-70q0-59.5 30-110T242 261q0-30.5 15.75-56.5t41.75-41.75 56-15.75q46.5 0 83.5 34.5l-27.5 29Q399 199 384.75 193t-29.25-6q-29 0-51.5 23t-22.5 50q0 5.5 1 10.5a196 196 0 0 0 2 9q-27 6-52.5 31T190 371t-16.5 73.5q0 36 8.75 67t8.75 66-12.5 67.25-29 62.75-29 60T108 826q0 22.5 14.25 49.5T161.5 926Zm133.5.5q25.5 0 39.5-15.25T330.5 903t20.5-41.5q26-45 59-73.5t84.5-48.75T627 700.5q49-11.5 76.25-24.25t27.25-20.75q0-4-5.5-4-15.5 0-46 9.25t-70.5 18.75Q560 690.5 513 698t-69 13q8.5-20.5 30.75-43.5T516 634t47.5-17.25T623.75 603t60.75-17.5q23-8.5 47.5-21.5t41.25-24.5 16.75-15q0-2-3-2-5 0-26.75 10.5t-55.5 24T630 581t-84 10.5q-12 0-12-5.5 0-3 20.25-16t50-33.75 59.5-46.75 50-55.25T734 375.5q0-10-3.5-10t-9.75 7.75T692.5 410q-15.5 20.5-38.25 42.5T607 493.25t-45.25 30.5-32.25 11.75q11.5-33.5 18.75-59T559.5 428q8.5-45 11.5-69.25T585 308q16.5-40 35.75-58.25T640 225.5q0-4-5-4-20.5 0-42.25 25.25t-39.5 69.75T526.5 418q-2.5 15.5-10.5 39.25a653 653 0 0 1-18 47.25q-10 23.5-19.25 40T465 562q-7-10-12.5-31.25T443 484t-6.25-48.5-2.25-35.5q0-45.5 10-79.5t23-57.25 23-36 10-16.25q0-2-2.5-2-23 0-41 21.5t-30.25 54-18.75 66-6.5 57.5q0 42 6.75 83.75T415 572.5q0 32.5-5.25 53.25t-17.5 37.5-32.75 38.25L352 588q-.5-8-.75-30.75T351 508.5q0-27.5-.5-38.75t-2-11.25q-8.5 0-13.5 34t-5 95q0 48.5-8.5 85.5T291 743.5q-21.5 33-42 56.25T215 844t-13.5 48q0 30 20 46.75t46 16.75M313 1043q-24 0-42.5-3.75c-12.333-2.5-21.5-4.92-27.5-7.25l14-37.5q10.5 3.5 25.5 6c10 1.67 20.167 2.5 30.5 2.5q34 0 61.5-16t51.25-38.5 45.5-43.25 44.25-30.75q24-11 58.75-14t72.5-9.25T717 824.5q15.5-10 35.75-34t43-51T841 694q38.5-31 57.25-76.75T917 514.5q0-53.5-22.75-94.75T831.5 360q4-30.5 4-49 0-54.5-23.25-97.5t-62.75-68.25T660 120q-30.5 0-58.5 14.5t-49 40l-20-36q26-28 59-43.25T660 80q61.5 0 110.25 30.75t77 83T875.5 311q0 14.5-1.5 29 42 28 62.5 75t20.5 99.5q0 59.5-20.75 114t-69.75 96q-20.5 17-44 45.25T776 824t-43 37.5q-24 14-54.75 22t-61 12.75T564 904t-31.5 7q-11 5-31.25 25.5t-48.5 45.25c-18.833 16.5-40 30.83-63.5 43S340.333 1043 313 1043"/></svg>