<svg xmlns="http://www.w3.org/2000/svg" viewBox="-5 80 1034 1040"><path d="M232.5 1120c-18.667 0-39.75-6.58-63.25-19.75q-35.25-19.755-67.5-50.25T48.5 986.25q-21-33.25-21-59.75 0-19.5 16.75-41.75T101 823l33.5-33q24-23.5 36.75-40.5T189.5 714q-57.5-10-98.25-56.5T38.5 549Q21 535 11.25 517T1.5 475.5Q1.5 440 22 412q-27-46.5-27-98.5Q-5 260 21 217t70.25-68.25T190 123.5h5q2.5 0 4.5.5 42-39 101-39 56 0 99 37.5 4-.5 8.25-.75t8.25-.25q39 0 69.5 25 20.5-31 53.75-48.75T610.5 80q36.5 0 69 17 22-10.5 46.5-10.5 27.5 0 51.5 13.75t39.75 35.25 17.75 46q43 3.5 75 33t32 71q0 14-3.5 26.5 25.5 45 25.5 96.5 0 33.5-11.25 64.5t-31.25 56.5q49 23 78.25 70.25T1029 703.5c0 11.333-.92 22.333-2.75 33s-4.92 22.333-9.25 35c1.33 6 2.25 11.833 2.75 17.5q.75 8.5.75 16c0 22.667-5.17 44.083-15.5 64.25q-15.5 30.25-42 52t-60 30.25q-21.5 25-51 39.5c-19.667 9.67-40.167 14.5-61.5 14.5-23 0-44.667-4.83-65-14.5-20.333 9.67-42 14.5-65 14.5q-35.5 0-65-18t-50.5-46q-34 0-62-10T436.5 904Q411 926 382 956.5c-29 30.667-49.667 55.67-62 75q-18.5 28.995-26.5 45c-7.667 15.33-17 26.42-28 33.25s-22 10.25-33 10.25m0-40c4 0 8.083-1.58 12.25-4.75s8.75-9.58 13.75-19.25c5.333-10.33 14.833-25.92 28.5-46.75q20.5-31.25 66-79.75 53-56 104.75-91.25t106-54.25 114.75-25q4-13 4-24.5 0-13.5-4.5-26.25t-12-21.75l-96 26q-5 1-17 3.25t-28.5 4.5-34.5 3.25q0-18.5 9.5-40.75t17-32.75l82-112q-17-11.5-38.5-18.75T518.5 510L446 607.5Q433 625 412 649t-50 50q-23.5-8.5-34-37.75T317.5 576v-55.5q-17 4.5-36 4.5-8 0-19.75-.75t-25.25-2.75V644q0 40.5-5.25 67.75T210 763.25t-47.5 55.25l-34 33.5q-31 30.5-46 48.25t-15 30.25q0 13.5 15.5 35.75t38 45.25q32.5-41.5 68.5-81.75t75-79.25Q271 844 279 844q9 0 14.25 6.5t5.25 13q0 8.5-8.5 17-38 38-73 76.75a1220 1220 0 0 0-66.5 80.25c14.667 12.33 29.417 22.5 44.25 30.5q22.25 12 37.75 12m.5-637q-32-5.5-48.25-15.25T168.5 403.5q0-14 13.5-14 6.5 0 16.5 4t19.5 11q3-15 10-27t14-12q6.5 0 11 7.25t4.5 17.75q0 20.5-24.5 52.5m-60.5-122.5q-29-9-44-20.25t-15-24.25q0-15.5 13.5-15.5 7 0 16.75 5.5T163 280q5.5-14.5 13.75-24.75T191.5 245q5.5 0 9.25 6.25T204.5 267q0 22.5-32 53.5M354 357q-46.5-28.5-46.5-52 0-17.5 13-17.5 7 0 16.25 8.5T354 317q8.5-13 17.25-21.25t16.25-8.25q5 0 8.75 5.25T400 305q0 13-11.25 25.25T354 357M119 543.5q25.5 0 47.5-11.25t38-27 23-28.25q17 4.5 32 6.25T290 485q69.5 0 118.5-36t67.5-91.5q25.5 27.5 60.5 27.5 32 0 63.5-25.5 17 5 34 5 35.5 0 60-22.5t24.5-54q0-12.5-3.5-24.5 29.5 0 54.75-21.75T795 190.5q0-31-22.25-47.5T726 126.5q-26 0-46.5 20-29.5-26.5-69-26.5-33.5 0-65 21.25T494 204.5q-17-21.5-38.5-32.25T416 161.5q-7 0-14 1t-16 4Q353 125 300.5 125q-24.5 0-47 10T217 165.5q-11-1-19-1.5t-14-.5q-40.5 0-74.5 20.25T55.25 238 35 313.5Q35 372 75.5 416q-16.5 8.5-25.25 25.25T41.5 475.5q0 28.5 23.5 48.25t54 19.75m671.5 422q26.5 0 52.25-15.25T882.5 914q39-5 68.5-36.75T980.5 805q0-21.5-7-36 15.5-32.5 15.5-65.5 0-40-18.75-74.25T921 573.75t-66-21.25q-37.5 0-81.5 29t-76 80.5q25 30.5 25 72.5 0 11-4.25 30t-8.75 40T705 842q0 51.5 19.75 87.5t65.75 36M858 743q-64.5-10.5-64.5-39.5 0-14 13.5-14 6.5 0 16.5 4t19.5 11q3-15 10-27t14-12q6.5 0 11 7.25t4.5 17.75q0 20.5-24.5 52.5M601.5 295.5q-28-11.5-41.5-23t-13.5-24q0-16.5 12.5-16.5 7 0 17.5 6.5a77.1 77.1 0 0 1 18.5 16q7-14.5 15.5-24t15-9.5q5.5 0 9 5.5t3.5 14q0 23.5-36.5 55"/></svg>