<svg xmlns="http://www.w3.org/2000/svg" viewBox="-40 80 1105 1040"><path d="M164 599q-61.5 0-107.5-22.25T-15 514.5-40.5 421q0-47 21.75-82t70.25-63.25T180 221.5q19.5-6.5 39.75-20.75T276.5 153q42-38.5 75.5-55.75T421 80q44 0 79.25 22.5t56 61T577 250q0 51.5-23.25 102T490 447t-93.25 78.75-112.5 53.75T164 599m240 521q-101.5 0-182.25-33T94.5 997 48 868q0-46.5 19.5-82.75t53.25-57 76.75-20.75q27 0 55.75 8T322 741l11.5 5q25 11 41.25 15.25t40.75 4.25 52.25-1.25T522.5 763q49 0 88 20.75t61.5 56.5 22.5 81.25q0 58.5-37 103.25c-24.667 29.83-58.75 53.17-102.25 70S461.333 1120 404 1120m0-40q74.5 0 130.75-20.25c37.5-13.5 66.833-32.17 88-56Q654.5 968 654.5 921.5q0-51.5-37.5-85.25t-94.5-33.75q-20.5 0-36.25.5t-32 1.25-38.75.75q-29.5 0-49.75-5.5T318 782l-11.5-5q-38.5-17-63-23.5t-46-6.5q-47.5 0-78.5 34t-31 87q0 60.5 41.25 108.5T242 1052.25 404 1080m0-188.5q-18.5 0-35-2.5t-32.5-7q-25.5-7-25.5-22 0-8.5 5.5-14t14.5-5.5q6.5 0 19 4.5 13.5 5 26.5 7t28 2q5.5 0 11-.25t10.5-1.25q7-1.5 11.5-1.5 8.5 0 14 5t5.5 13.5q0 15.5-15.5 18.5-8 1.5-17 2.5t-20.5 1M164 559q67.5 0 133.75-26.75t120.5-71.5 86.5-99.75T537 250t-33-93-83-37q-28 0-54.75 13.75T302.5 181.5q-40 36.5-63.5 53t-47 24Q120.5 281 78.25 304.25t-60.5 51.25T-.5 421q0 64 44 101T164 559m41-207q-9.5 0-15-4.75t-5.5-13.75q0-18 19.5-19 29.5-1 54.75-17.5T304 252q5.5-9 16-9 8 0 13.5 5t5.5 12.5q0 7-4 12.5-16.5 23-38 40.75t-45 28T205 352m694 533q-58 0-112.75-34.25T688 758.25 618.75 627 593 477q0-86.5 42-138t113-51.5q52 0 88.5 31T901 417q17.5 41.5 29 61.25t25.5 33.25q53.5 51 81.25 101.75T1064.5 714c0 31.667-7.42 60.417-22.25 86.25S1007.5 846.667 982.5 862Q945 885 899 885m0-40q35 0 63.5-17.5t45.25-47.25c11.17-19.833 16.75-41.917 16.75-66.25q0-83-96.5-173.5-16.5-15.5-29.25-37.75T865 432q-24.5-56.5-51.25-80.5t-65.75-24q-53.5 0-84.25 39.75T633 477q0 68.5 22.75 134.25t60.75 118.5 85.5 84T899 845m-27-235.5q-6.5 0-12-4.5-32-27-54.75-63.5t-33.25-82q-2-10 3.5-17t15-7q7 0 12.5 4.25t7.5 11.25q13 41 30.5 71.25t43.5 52.25q7 5.5 7 15 0 8-5.75 14t-13.75 6"/></svg>