<svg xmlns="http://www.w3.org/2000/svg" viewBox="118 80 788 1040"><path d="M512 1120c-78 0-146.583-18.33-205.75-55s-105.333-87.75-138.5-153.25Q118 813.5 118 684q0-94 21-183t58.25-165.25 87-133.75T392 112.25 512 80t120 32.25T739.75 202t87 133.75T885 501t21 183q0 129.5-49.75 227.75c-33.167 65.5-79.333 116.58-138.5 153.25S590 1120 512 1120M303.5 895.5q-10.5 0-18-7.5t-7.5-18q0-10 7.5-17.5t18-7.5 18 7.5T329 870q0 10.5-7.5 18t-18 7.5m106 105.5q-13 0-21.75-8.75T379 971q0-13 8.75-21.5t21.75-8.5q12.5 0 21 8.5T439 971q0 12.5-8.5 21.25t-21 8.75m119-32.5q-11 0-19.25-8t-8.25-19q0-11.5 8.25-19.5t19.25-8q11.5 0 19.5 8t8 19.5q0 11-8 19t-19.5 8m45.5-105q-11 0-19-8t-8-19q0-11.5 8-19.25t19-7.75 18.75 7.75 7.75 19.25q0 11-7.75 19t-18.75 8M738 875q-8.5 0-14.5-6t-6-15q0-8.5 6-14.5t14.5-6 14.5 6 6 14.5q0 9-6 15t-14.5 6m-226 205q106 0 185.5-49.5t124-138.75T866 684q0-87.5-19.25-170t-53-154T715 234.5t-96.75-84.25T512 120t-106.25 30.25T309 234.5 230.25 360t-53 154T158 684q0 118.5 44.5 207.75t124.25 138.75T512 1080M289 536.5q-8 0-15-6.75t-4-19.25q18.5-82.5 59.25-153.25T432.5 231.5q8-6.5 16.5-6.5t13.5 6.25 5 14.25q0 8.5-6 14-60 53-98.5 118.25T307 522.5q-1.5 7-6.75 10.5T289 536.5M754 616q-12.5 0-21-8.75T724.5 586t8.5-21 21-8.5 21 8.5 8.5 21-8.5 21.25-21 8.75m-40-172q-9.5 0-16-6.5t-6.5-16 6.5-16 16-6.5 16 6.5 6.5 16-6.5 16-16 6.5"/></svg>