<svg xmlns="http://www.w3.org/2000/svg" viewBox="-102 180 1228 840"><path d="M700 1020c-19.333 0-39.417-1.17-60.25-3.5q-31.25-3.495-58.75-9.75c-18.333-4.17-33.667-9.083-46-14.75q-22.5 2-46.5 4t-50 2Q256 998 134 946T-45.5 795l37-14.5Q49.5 870 160.75 914t277.75 44q172 0 293.5-69.25T912 705q-67.5-116-142.5-190t-165-109.5T402 370q-98.5 0-182 34.25T71.75 505-36.5 669L-75 657q40.5-93.5 101.25-162.75T165 383.75t170.5-50.25q16-33.5 37-64.5t43.25-54.75T456.5 180Q535 211.5 619 280.75t164 166T929 658q18-26 46-57.25c18.667-20.833 37.83-40.75 57.5-59.75q29.505-28.5 53.25-46.75T1119.5 476c4.33 0 6.5 3.667 6.5 11q0 41-17.25 84.25c-11.5 28.833-26.67 55.333-45.5 79.5Q1035.005 687 1002.5 708q54 34.5 87 82t33 104c0 12-2.17 18-6.5 18q-12.495 0-37.5-15.75t-54-40.25c-19.33-16.333-37.583-33.417-54.75-51.25Q944 778 929.5 755.5q-25 40-57.5 74.75t-69 61.25-73 43q28 16 42.75 30.5t14.75 29c0 9.33-6.167 16-18.5 20q-18.5 6-69 6M-51.5 808.5q-8.5 0-15.75-5t-7.25-14q0-10.5 16.75-22t71.25-35q-45-17-70-28.25T-91.75 684-102 665.5q0-7 6.25-13.5t15.25-6.5q9.5 0 30.75 9.75T-5 679t40 27.75 16.5 21.75q0 8.5-11.25 21.75t-28 26.75T-22 799.5t-29.5 9m232-146.5q-16 0-27.25-11.25T142 623.5t11.25-27.25T180.5 585t27.25 11.25T219 623.5q0 15.5-11.25 27T180.5 662M271 801l-32-24.5 59.5-81.5-5-69 40-3 6 83.5Zm325.5 54.5q-48 0-91.5-20T433.75 781 406 703.5q50 0 101 16.75T602.75 767t76.75 70q-39 18.5-83 18.5m325.5-129Q808 692 680.5 668.75T415 643.5v-40q141 2 271.75 25.75T934 688.5Z"/></svg>