<svg xmlns="http://www.w3.org/2000/svg" viewBox="-33 80 1090 1040"><path d="M396.5 1120c-64.667 0-123.333-11.42-176-34.25s-97.917-55.17-135.75-97Q28 926-2.5 839T-33 647q0-98.5 37.75-170.25T113 365q44-25 93.5-36t99.75-15.5T403 303.25t84.5-20.75 70.5-39.75T621.75 190a901 901 0 0 1 65-53q33.75-25 74-41T852 80q97 0 151 81t54 226q0 114.5-33 222.5T930.5 810t-143 162.25T606 1081t-209.5 39M324 738q-58 0-103.75-16.25t-71.75-44.5-26-64.75q0-26 12.25-58T166.5 495t40-39.5q23.5-14 77.25-26t129.5-19.5T577 402.5q0 23.5 9 48.75t23.75 46T641 529q-54 104-135.25 156.5T324 738m104 190.5q-30.5 0-45.25-14.5T368 879q0-21.5 15.5-35t41-24.5 56.5-24.25T543 762q37-24 72.5-59.75t67.75-70.75T742 575q28.5-23 53.25-32.75t46.25-9.75q28.5 0 42 14T897 581q0 22-19 56t-53.25 73.25T745.5 788 648 858.25t-108.5 51T428 928.5m-14 75q67 0 137.25-23.75t138-66.75T816 812t104.25-127.25 71-145.25c17.17-50.667 25.75-102 25.75-154 0-82.333-14.17-147.167-42.5-194.5q-42.5-71-125-71-29 0-49.25 13.25t-38.75 34.5T719.25 214t-60.75 48.5Q607 295 550.5 312t-114.25 25-112.75 14T220 367.25t-87 32.25q-52.5 30-79.25 86.5T27 613.5Q27 678 51.5 722t66.5 70 94 37.5q45.5 9.5 66.5 22.5t21 41q0 37.5 17.5 62t43.75 36.5 53.25 12m305.5-524q-31 0-53-22t-22-53 21.75-53 53.25-22q31 0 53 22t22 53-22 53-53 22m197-32.5q-17 0-33-4t-33-16.5Q854 414 854 397q0-30.5-12.5-60.25t-34-41.25q7-38.5 26.25-60.75T874 212.5q23.5 0 40.25 23.25t26 61.75 9.25 85.5q0 26-7.75 45t-25.25 19"/></svg>