<?xml version="1.0" encoding="UTF-8"?>
<svg width="24px" height="24px" viewBox="0 0 24 24" version="1.1" xmlns="http://www.w3.org/2000/svg" xmlns:xlink="http://www.w3.org/1999/xlink">
    <!-- Generator: Sketch 63.1 (92452) - https://sketch.com -->
    <title>ic_mail</title>
    <desc>Created with Sketch.</desc>
    <defs>
        <polygon id="path-1" points="0 0.0015 23.9999 0.0015 23.9999 23.9995 0 23.9995"></polygon>
    </defs>
    <g id="Symbols" stroke="none" stroke-width="1" fill="none" fill-rule="evenodd">
        <g id="base/share_group" transform="translate(-128.000000, 0.000000)">
            <g id="ic_mail" transform="translate(128.000000, 0.000000)">
                <g id="Group-3" transform="translate(0.000000, -0.001500)">
                    <mask id="mask-2" fill="white">
                        <use xlink:href="#path-1"></use>
                    </mask>
                    <g id="Clip-2"></g>
                    <path d="M23.9999,11.9995 C23.9999,18.6275 18.6269,23.9995 11.9999,23.9995 C5.3729,23.9995 -0.0001,18.6275 -0.0001,11.9995 C-0.0001,5.3735 5.3729,0.0015 11.9999,0.0015 C18.6269,0.0015 23.9999,5.3735 23.9999,11.9995" id="Fill-1" fill="#13AE67" mask="url(#mask-2)"></path>
                </g>
                <path d="M18.7421,15.1826 L15.5541,11.9946 L18.7421,8.8076 L18.7421,15.1826 Z M18.2361,16.5496 L5.7721,16.5496 C5.6531,16.5496 5.5411,16.5066 5.4531,16.4346 L9.1691,12.7186 L10.9281,14.4766 C11.2141,14.7636 11.5951,14.9206 12.0001,14.9206 C12.4051,14.9206 12.7861,14.7636 13.0721,14.4766 L14.8391,12.7096 L18.5601,16.4316 C18.4721,16.5056 18.3591,16.5496 18.2361,16.5496 L18.2361,16.5496 Z M5.2581,8.8076 L8.4541,12.0036 L5.2581,15.1996 L5.2581,8.8076 Z M5.4551,7.5556 C5.4621,7.5506 5.4681,7.5456 5.4741,7.5406 L5.4891,7.5326 C5.4951,7.5276 5.5021,7.5236 5.5091,7.5196 C5.5131,7.5166 5.5191,7.5136 5.5241,7.5106 C5.5311,7.5066 5.5381,7.5026 5.5451,7.4996 C5.5511,7.4966 5.5551,7.4946 5.5611,7.4926 C5.5681,7.4896 5.5761,7.4856 5.5831,7.4836 C5.5891,7.4806 5.5941,7.4786 5.5991,7.4766 C5.6071,7.4746 5.6151,7.4716 5.6231,7.4696 C5.6281,7.4676 5.6341,7.4656 5.6391,7.4646 C5.6471,7.4626 5.6551,7.4606 5.6641,7.4586 C5.6691,7.4576 5.6751,7.4566 5.6791,7.4556 C5.6891,7.4536 5.6981,7.4536 5.7081,7.4526 C5.7121,7.4516 5.7171,7.4506 5.7211,7.4506 C5.7351,7.4496 5.7501,7.4486 5.7631,7.4486 L18.2361,7.4486 C18.2511,7.4486 18.2641,7.4496 18.2781,7.4506 C18.2831,7.4506 18.2881,7.4516 18.2921,7.4526 C18.3021,7.4536 18.3111,7.4536 18.3201,7.4556 C18.3251,7.4566 18.3311,7.4576 18.3361,7.4586 C18.3451,7.4606 18.3521,7.4626 18.3611,7.4646 C18.3661,7.4656 18.3721,7.4676 18.3781,7.4696 C18.3851,7.4716 18.3921,7.4746 18.4001,7.4766 C18.4061,7.4786 18.4111,7.4806 18.4171,7.4836 C18.4251,7.4866 18.4311,7.4896 18.4381,7.4926 C18.4441,7.4946 18.4501,7.4966 18.4551,7.4996 C18.4621,7.5026 18.4691,7.5066 18.4751,7.5106 C18.4811,7.5136 18.4861,7.5166 18.4911,7.5196 C18.4981,7.5236 18.5051,7.5276 18.5121,7.5326 C18.5161,7.5356 18.5211,7.5376 18.5251,7.5406 C18.5321,7.5456 18.5391,7.5506 18.5451,7.5556 C18.5491,7.5586 18.5521,7.5616 18.5551,7.5646 L12.3571,13.7616 C12.2621,13.8576 12.1351,13.9106 12.0001,13.9106 C11.8651,13.9106 11.7381,13.8576 11.6421,13.7616 L5.4451,7.5636 C5.4481,7.5616 5.4521,7.5586 5.4551,7.5556 L5.4551,7.5556 Z" id="Fill-4" fill="#FFFFFF"></path>
            </g>
        </g>
    </g>
</svg>