<svg xmlns="http://www.w3.org/2000/svg" viewBox="51 80 923 1040"><path d="M514.5 755.5Q499 727 480.5 710t-39.75-24.5T395 678q-36.5 0-66.5 29T261 807.5q-30.5 58-58.5 94.25T150 955t-45.5 17q-21.5 0-37.75-11.5t-16.25-37q0-22.5 9.5-43.5t9.5-41q0-91 25.75-155.75t71.75-99.5T274 549q46 0 90.25 16T448 609.5t70 67q32-46.5 78.5-73.25T696 576.5q86.5 0 130.5 52t55.5 164q5 48.5 12.25 79.75t14.5 50.25a6379 6379 0 0 0 12 31.25q4.75 12.25 4.75 23.75c0 17.333-6.167 30.83-18.5 40.5s-28.333 14.5-48 14.5c-23.333 0-45.083-4.42-65.25-13.25s-38.5-22.583-55-41.25Q714 950 694.5 906t-33-105.5q-14-63-24-94.75T616.75 663t-27.25-11l11.5-39q22.5 0 38 14.25t28.75 50.25T696 778q14.5 60.5 31.5 102t37 66 43.5 35.5 51 11q14.5 0 20.5-3.75t6-11.25q0-4-1.25-8.25t-5.75-14.75q-7.5-17.5-18-52t-18-106q-10-98-45.5-139t-101-41q-37.5 0-71.5 16t-61.75 46.75-48.25 76.25M175 1099c-11.333 0-21.25-4.58-29.75-13.75s-12.75-20.08-12.75-32.75c0-13.33 4.25-24.67 12.75-34s18.417-14 29.75-14c11.667 0 21.583 4.58 29.75 13.75S217 1038.5 217 1051.5s-4.167 24.17-12.5 33.5-18.167 14-29.5 14m15.5-29-11-38.5c61.333-12.67 115.417-35.083 162.25-67.25Q412 916 454 845.25T503 689l38 14q-9 91.5-55 167T364.5 997.5c-50.333 34.67-108.333 58.83-174 72.5m113 50q-93 0-147.5-39l8-67q67.5-56 115.25-114t73-111.25 25.25-94.25q0-5.5-.25-11.75T376 672l30.5-28.5q5 1 8 17.5t3 33.5q0 46.5-25.25 103t-73.5 117.25T202 1034l-3 26c26.667 13.33 61.5 20 104.5 20 83.667 0 156.75-27.08 219.25-81.25Q616.5 917.5 660.5 770.5L696 786q-30.5 105-87.5 179.75c-38 49.83-82.833 88-134.5 114.5Q396.5 1120 303.5 1120M934 837q-14 0-27.25-5.5T870.5 813l-66-191-131-24.5V550q13-11.5 33.75-17.5t39.75-6q50 0 95 37.25t61 108.75q11.5 49.5 27.5 79.25t22 36.25l6 6.5q15 16.5 15 24t-11.5 13-28 5.5M702.5 613l-41-15.5q0-91.5-18.5-177t-50.25-153.25-71.5-107.5T438.5 120q-35 0-55 25.5t-20 65.5q0 12.5 2.5 34t7.75 54T387 378q10.5 59 17 100t9.75 69.75T418 598.5l-40 3q-1-34-8-85.25T349 392.5q-13-69-19.25-113.25T323.5 211q0-37.5 14.5-67.25T378.5 97t60-17q53 0 100.75 42.75t84.5 117 57.75 170.5 21 202.75m-264 40q-35-29.5-77.75-46.75T274 589q-48.5 0-85.5 29.25t-58 85-21 135.75q0 16.5-4 30.75T97 895.5q-5 12.5-5.75 19t-.75 10q0 7.5 10.5 7.5 13.5 0 31.25-13.5T173 874t51.5-83.5q32-59 58.75-91.75t51.5-46.25T385.5 639q15.5 0 28 1.75t26 7.75Z"/></svg>