<svg xmlns="http://www.w3.org/2000/svg" viewBox="-2 80 1029 1040"><path d="M577 1120c-56.333 0-112.25-7.92-167.75-23.75Q326 1072.505 251.75 1028q-74.25-44.5-131.5-107.75T30.25 778-2.5 606.5q0-90 33.75-169.75T123.5 291.5t133.25-112.75 157.5-73T578.5 80q129 0 230.25 69.75t159.5 205.5c38.83 90.5 58.25 201.917 58.25 334.25 0 74-12.83 138-38.5 192q-38.5 81-103.25 134Q820 1068.495 740 1094.25c-53.333 17.17-107.667 25.75-163 25.75M330 735.5q-8-7-5.25-22.5t14.75-29 25.75-19 21.25.5q8.5 6.5 6 22t-15 29.5q-12 13.5-26.25 19.25T330 735.5M288.5 623q-15.5 7-31.25 5.75T237.5 619q-4.5-10 5.25-21.75T268.5 578q16.5-8 32-7t19 9.5q4 9.5-5 22.25t-26 20.25M487 749.5q-11 0-19.25-12.25t-8.25-29.75 8.25-29.75T487 665.5q11.5 0 19.5 12.25t8 29.75-8 29.75T487 749.5M302.5 512q-17.5 0-31-7.5T258 487t13.75-17.5T303 462q19 0 31.75 7.25T347.5 486q0 10.5-13 18.25t-32 7.75M418 941.5q81.5 0 157.75-26.25T717 842.75t113.75-106.5 76-128.5T934 469.5q0-69.5-28-132.5t-76.75-112.25-111.5-77.5T585 119q-81 0-160 25.25T276 215 152.5 321.5 68.25 454.75 37.5 605.5q0 62.5 23.5 114.75t63.25 93.25 89.5 69.5 102.5 43.5 101.75 15m208.5-266q-9 6.5-23 2.25T578 660q-11-13.5-13.25-28.25t6.75-22.25 23-2.5 25.5 18q11.5 12.5 13.75 28t-7.25 22.5M403.5 415q-9 7-22.75 2.5t-25.75-18q-11.5-13-13.5-28t7-22.5 23.25-2.75T397 364.5q11 12.5 13.25 28T403.5 415m269 143.5q-18.5 0-31.75-7.5t-13.25-17.5T641 516t32-7.5q17.5 0 31 7.25t13.5 16.75q0 11-13 18.5t-32 7.5m-166-186q-10-2.5-14-17.75t1-32.75 15.75-29 20.25-8.5 12.75 17.75-.75 32.25q-3.5 18-14.25 29t-20.75 9m196 80.5q-17 5-32.25 2t-17.75-12.5q-2-10 8.25-21.25T689 405q16.5-5 31.25-2t18.25 13q3 9.5-7.75 20.75T702.5 453M608 373q-8-7-5.25-22T618 322q12-13.5 25.5-19.25t21 1.25q8.5 7 5.25 21.5t-14.75 29q-11 14-25.5 19.5t-21.5-1"/></svg>