<svg xmlns="http://www.w3.org/2000/svg" viewBox="217 80 590 1040"><path d="M512 1120q-90 0-156.25-37.5c-44.167-25-78.25-60.42-102.25-106.25q-36-68.75-36-162.75 0-95.5 37-167.5T358 533.75t154-40.25q88 0 154.25 40.25T769.5 646t37 167.5q0 94-36 162.75c-24 45.83-58 81.25-102 106.25q-66 37.5-156.5 37.5M377.5 984q-6.5 0-6.5-8 0-8.5 10.25-21T405 932.75t22-9.75q9 0 22.25 9.75t23.5 22.25T483 976q0 8-6.5 8-5 0-15.25-7.5t-20-14.75T427 954.5t-14.25 7.25A5979 5979 0 0 0 393 976.5q-10 7.5-15.5 7.5m-76-135q-5.5 0-5.5-7.5t10.5-20.25 24-23 22-10.25 22 10.25 24 23T409 841.5t-5.5 7.5q-6 0-16.5-7.5t-20.25-14.75-14.25-7.25-14.25 7.25-20 14.75-16.75 7.5m246 135q-6.5 0-6.5-8 0-8.5 10.25-21T575 932.75t22-9.75q9 0 22.25 9.75t23.5 22.25T653 976q0 8-6.5 8-5 0-15.25-7.5t-20-14.75T597 954.5t-14.25 7.25A5979 5979 0 0 0 563 976.5q-10 7.5-15.5 7.5m-91-121.5q-6 0-6-8.5 0-9.5 11.5-23.5t26.25-25.25T512 794q9.5 0 24 11.25t26 25.25 11.5 23.5q0 8.5-6 8.5-5.5 0-16.75-8.25A6958 6958 0 0 0 528.5 838q-11-8-16.5-8-5 0-16.25 8t-22.5 16.25-16.75 8.25M512 1080c52.667 0 98-10.67 136-32s67.25-51.917 87.75-91.75Q766.5 896.5 766.5 813.5q0-84.5-31.75-147.5t-89-97.75T512 533.5t-133.75 34.75-89 97.75-31.75 147.5q0 83 30.75 142.75c20.5 39.833 49.75 70.42 87.75 91.75s83.333 32 136 32M362.5 726q-7 0-7-7.5 0-9 11.5-23t26.25-25 23.75-11q9.5 0 24 11a154 154 0 0 1 26 25q11.5 14 11.5 23 0 7.5-7 7.5-6.5 0-17.5-7.75a1202 1202 0 0 1-21.5-15.5Q422 695 417 695t-15.5 7.75-21.25 15.5T362.5 726m258 123q-5.5 0-5.5-7.5t10.5-20.25 24-23 22-10.25 22 10.25 24 23T728 841.5t-5.5 7.5q-6 0-16.5-7.5t-20.25-14.75-14.25-7.25-14.25 7.25-20 14.75-16.75 7.5m-68-123q-7 0-7-7.5 0-9 11.5-23t26.25-25 23.75-11q9.5 0 24 11a154 154 0 0 1 26 25q11.5 14 11.5 23 0 7.5-7 7.5-6.5 0-17.5-7.75a1202 1202 0 0 1-21.5-15.5Q612 695 607 695t-15.5 7.75-21.25 15.5T552.5 726M512 586q-39.5 0-79.25-7.25T353.5 557q-27.5-32-52.25-52.25t-40.25-32-15.5-18.25q0-4 9.5-7t23.5-3q11 0 24 2t25.5 7q-16.5-35-43-61.75t-47.25-44.25-20.75-25q0-4 6.25-6.5t24.25-2.5q17 0 38.75 8.75T328 344q-13-44.5-31-73.25t-35.25-46-28.75-26.5-11.5-14.75q0-4.5 10.25-6.25t24.75-1.75q36.5 0 66.25 11.75T381 221q0-40-10.5-66.25t-21.25-42.5T338.5 87q0-7 23-7 38 0 78 21.75T512 165q32.5-41.5 72.5-63.25t78-21.75q23 0 23 7 0 9-10.5 25.25t-21.25 42.5T643 221q28.5-22 58.25-33.75t66.25-11.75q14.5 0 24.75 1.75t10.25 6.25q0 5.5-11.5 14.75t-28.75 26.5-35.25 46T696 344q20.5-13 42-21.75t38.5-8.75q18 0 24.25 2.5t6.25 6.5q0 7.5-20.75 25t-47 44.25T696 453.5q13-5 25.75-7t23.75-2q14.5 0 23.75 3t9.25 7q0 6.5-15.5 18.25t-40 32T670.5 557q-39.5 14.5-79.25 21.75T512 586"/></svg>