<svg xmlns="http://www.w3.org/2000/svg" viewBox="0 80 1024 1040"><path d="M512 1120c-74.333 0-142.75-7.83-205.25-23.5s-116.667-37.83-162.5-66.5-81.333-62.417-106.5-101.25Q0 870.5 0 801q0-67 37.75-125.5T146 573t169.5-67.5l9.5 39q-87.5 21-151.5 59t-98.75 88.25T40 801q0 60.5 34.75 111.5t98 88.75c42.167 25.17 92 44.75 149.5 58.75q86.25 21 189.75 21t189.75-21c57.5-14 107.333-33.58 149.5-58.75q63.25-37.75 98-88.75T984 801t-37.5-112.75T841 597.5t-159-57l8-38.5q101 20.5 176 64.25t116.5 104C1010.17 710.417 1024 754 1024 801c0 46.333-12.58 88.917-37.75 127.75-25.167 38.833-60.667 72.58-106.5 101.25s-99.917 50.83-162.25 66.5S586.667 1120 512 1120m-48-103 31-16q-12.5-25.5-42.75-44.75T356.5 913.5l-22-8q-93-34-133.5-71.75t-40.5-96.25q0-40 18.75-65.75T225 646q22 0 39.5 15.25T309 719.5l10 16q21 33.5 52 61t86 27.5q18 0 33.5-3.25t25.5-8.25L504.5 781q-10 4-21 6t-25.5 2q-42 0-66.5-20.75T350 719.5L336.5 697q-29.5-49-53-67.5t-57-18.5q-42.5 0-71.75 35.75T125.5 737.5q0 70 47 117.5T321 938l20 7q58 20 85.5 36.25T464 1017m68-45.5 30-18q-13-21-34.25-37T473 885.25t-85-33.75l-25-9q-65.5-23.5-96-51.75T231 720l-34.5 7q5 34.5 22.25 61.25t50.25 48T353 876l22 8q54.5 19.5 85 33.25t46.25 26T532 971.5m69.5 6.5q37-10.5 65-26.5t62-16q12 0 20.5 3.25t19.5 11.75l20.5-28q-14-11.5-28.25-16.75t-32.25-5.25q-27 0-49.5 8.5t-43.25 18.75A233 233 0 0 1 592.5 944ZM574 924q29.5-10 54-25t50.25-26.75 57.25-11.75q18.5 0 29 5.5t21 19.5l28-21q-15-20.5-33-29.75t-45-9.25q-36 0-65.75 12.75t-56.25 28.5T560 892Zm-66 119.5c-21.667 0-39.083-2.08-52.25-6.25s-25.5-9.75-37-16.75-25.25-14.92-41.25-23.75Q353.5 983.5 312 969q-112-39-165.5-95.5T93 738.5q0-53 29-99.75t79.25-82.5 114.25-56 134-20.25q5.5-5.5 18-12.25T497 458q-3.5-20.5-6.5-45.5t-3-64.5l25 2.5q0 52.5 7.75 94t7.75 76q0 23-5 39.5t-18 29.5q-9 9-21.5 18.5t-22.25 21-9.75 27.5q0 20 15.75 35t36 28.25 36 28.5T555 784.5q0 20-9.75 33t-32.75 24L527 873q31-13.5 47-36.75t16-54.75q0-26.5-15.75-46t-36-33.75-36-25-15.75-20.25q0-10 16-20.5t29-24q19-20 25.25-44t6.25-50q0-41-7.25-80.5t-7.25-75v-6.75q0-3.25.5-8.25l24.5-17q0 35.5 1.75 55.75t4 35.5 4.25 36.75q8.5 3 15.75 7.5t10.75 7.5q49 8 73 23.5t38 30.5L825 572l82 61q19 17.5 28.25 45t9.25 59q0 45.5-21.75 85.25T869.5 884.5Q851 898 839 914.75t-23.75 32.5-28.75 26-45 10.25q-57 0-91 9t-55.75 21-40.75 21-46 9m345-218q26.5 0 43-17.75t16.5-45.25q0-36-26.75-73.5t-69.25-60.5l-19 29.5q33.5 17.5 56.75 47.75T877.5 762q0 14-7 21.25T852 790.5q-14 0-31.25-8.75T781 764.25t-52.5-8.75q-26 0-54.5 9T613 791l15.5 31q28-16 52.75-23.75T728 790.5q27 0 47.5 8.75t38.75 17.5T853 825.5M357.5 368q-11.5 1-11.5-7.5 0-7 8.5-8L524 330q13-1.5 13-11 0-4-2.75-7T524 310l-175 28q-9.5 2-9.5-6.5 0-6 7-7.5l167-34.5q9-2 9-8.5 0-10.5-11.5-8l-169 38.5q-9 2-9-7.5 0-5.5 6.5-7.5l209.5-53q1.5-.5 4.5-.5 13.5 0 24.5 22.25T589 317q0 32-15.5 33.5Zm229 38.5q-16.5 0-24.5-12.5l8.5-24q4.5 10.5 15 10.5 19 0 32.5-18.5t13.5-54q0-49-20.5-76.25t-47.5-27.25q-20 0-31.75 14.25T520 257l-28 3q0-35 20.5-57.75T564 179.5q25.5 0 47.5 17t35.25 45.75T660 306.5q0 44-21.75 72t-51.75 28M650 321l-23.5-96.5q21-3 33.25-10.25t22-17.25 23-21.75T742 151.5q16-8 44.5-20.5t77-28q38-12.5 66-17.75t39-5.25q15 0 15 15.5 0 21.5-30.5 28.5l-144 35q-32.5 8-47.75 19.5t-27.25 27q-14 18-24.75 38.75t-24 40.75T650 321"/></svg>