<svg xmlns="http://www.w3.org/2000/svg" viewBox="-31 80 1087 1040"><path d="M512 1054c-77.333 0-149-11.33-215-34q-99-34-172.75-95T9.5 782t-41-178q0-36 42.25-67.25t117-55.25T301 444t211-13.5T723 444t173.25 37.25 117 55.5c28.17 21.167 42.25 43.75 42.25 67.75 0 64-13.67 123.333-41 178q-41 82-114.75 142.75T727 1020c-66 22.67-137.667 34-215 34m.5 66c-50.333 0-95.25-4.17-134.75-12.5s-68.083-20.67-85.75-37v-54l220 26 220.5-26v54c-17.333 16.33-45.75 28.67-85.25 37S562.833 1120 512.5 1120m-.5-106q128 0 233-43.25T917.5 854Q851 884.5 746 902t-234 17.5T278.25 902 106.5 854Q174 927.5 279 970.75T512 1014M219 716q28.5-13.5 56.75-25.5t55.5-22 53.25-18l-11-33.5q-49 15.5-101.25 36.75T166 700Zm145 23.5q34-25 62.75-41.5T481 672.5l-12-32q-34 12.5-72.25 35T315.5 732Zm148 140q82.5 0 157-8.75t135.5-23T908.25 816 970 780.5q13.5-24.5 23.5-51a306 306 0 0 0 15-54.5q-42 30.5-116.5 54t-171.75 37T512 779.5q-110.5 0-208-13.5t-171.75-37T15.5 675q5.5 28 15.25 54.5a371 371 0 0 0 23.25 51q19 18 61.75 35.5t103.75 31.75 135.5 23 157 8.75m0-110q-88.5 0-176-12.75T170 719 30 656.5q28.5-25 82.25-46t121.5-36.75 140-24.25T512 541t137.75 7.75 138.75 22 120 34.25 81.5 45q-59 41-129.75 67.5t-157 39.25T512 769.5m-227-165q-29-23-45.75-61.25T222.5 463q0-53.5 9.75-94.25t19.5-77 9.75-74.25q0-15-4.75-31.25T245 160l-56 38q-5.5-14-5.5-29 0-22.5 14.25-37T234 117.5q29.5 0 48.5 27t19 71q0 43-9.75 81t-19.5 77.75T262.5 463q0 36.5 16 68.75T320 581.5Zm227 135q79.5 0 153.75-7.75T803.5 710.5t111-31 74.25-36.75c17.83-12.833 26.75-25.75 26.75-38.75 0-16-13.67-31.833-41-47.5q-41-23.5-112-43t-161.25-31.25T512 470.5t-189.25 11.75T161.5 513.5t-112 43-41 47.5q0 19.5 26.75 38.75t74.25 36.75 111 31 137.75 21.25T512 739.5M619.5 755q-24 0-37.5-10.5t-13.5-29q0-16 13.5-31t34.75-24.75T660 650q23 0 38.25 9.75T713.5 687q0 16-13.5 31.75t-35 26T619.5 755m-92 9 93-1.5 136.5-17q21-23.5 28.75-41.5t7.75-32q0-32.5-31.5-47.25T682 610q-46 0-85.25 17.5t-63 44.75T510 729q0 13 4.75 20.5T527.5 764m-89-159q-36.5-31-57.75-73t-21.25-84.5q0-34.5 3.25-76.5t6.25-83.5 3-74q0-14.5-2.25-27.25T366 167l-69.5 11q0-31 14.75-50.25T350 108.5q28.5 0 45.25 28t16.75 77q0 51.5-6.25 115.75T399.5 447.5q0 35 19.25 69.75T471 577Zm488-325.5L189 260v-34l739.5 3.5Zm44.5 400-287-113-71-94q39.5-33 70.5-55t61.25-37.25 65.5-26.75T893 330q9.5 55.5 30.75 108.25T968 528l64.5 63.5-13 50.5ZM189 198l-3.5-33L917 80l6.5 50Z"/></svg>