<svg xmlns="http://www.w3.org/2000/svg" viewBox="-13 80 1050 1040"><path d="M512 1001q-260 0-392.5-106.5T-13 577.5q0-46 8.5-82.5t26.25-62.25T66 393.5q4-47.5 25.75-87T151.5 252q5.5-25 24.75-46.75T222.5 170t54.5-13.5q19-25 50.75-39.5T392 102.5q13.5 0 27 3Q435.5 94 460.75 87T512 80q26.5 0 51.5 7t41.5 18.5q13.5-3 27-3 32.5 0 64.5 14.5t50.5 39.5q27.5 0 54.5 13.5t46.5 35.25T872.5 252q38.5 15 60.25 54.5t25.25 87q27 13.5 44.5 39.25c11.67 17.167 20.33 37.917 26 62.25s8.5 51.833 8.5 82.5q0 210.5-132.25 317T512 1001m0 119c-66 0-117.5-6.42-154.5-19.25q-55.5-19.245-55.5-53.25V965l210 23 210-23v82.5q0 34.005-55.5 53.25C629.5 1113.58 578 1120 512 1120m0-159q149 0 257.75-38.75t168-122.5T997 580.5q0-18.5-.75-31.75T993 521.5q-57.5 23.5-135.75 42t-167 28.75A1552 1552 0 0 1 512 602.5q-89 0-178-10.25T166.75 563.5 31 521.5q-2.5 14-3.25 27.25T27 580.5Q27 716 86.25 799.75t168 122.5T512 961m27.5-450-6.5-29q17-2.5 27-13t10-26q0-8.5-6.5-20l27.5-12.5q9 14 9 32.5 0 26.5-16.5 45.25t-44 22.75M484 387.5 473 360q13.5-5.5 21.25-16.75T502 318.5q0-6.5-2.25-12t-7.75-12l25-17q7 7.5 11 19.25t4 22.75q0 23-12.75 41.25T484 387.5m28 175q89 0 176.5-10.25T852 523.5t129.5-42q-8-22-24-39t-34.5-22q0-51.5-24-92.25T839.5 282q-1-22.5-15-41.75t-36.75-31.75T737 194a26.8 26.8 0 0 0-5.25-.5h-5.25q-15-23.5-40.75-37.5T632 142q-18.5 0-35.5 7-12.5-14-34.5-21.5t-50-7.5-50 7.5-34.5 21.5q-17-7-35.5-7-27.5 0-53.5 14t-41 37.5h-5.75q-2.75 0-5.75.5-27.5 2-50 14.75t-36.25 31.75T184.5 282q-35.5 5.5-59.5 46.25t-24 92.25q-18.5 5-34.25 22t-24.25 39q54 23.5 129.75 42t163.25 28.75T512 562.5M735 463l-6.5-30q17-2.5 27-13t10-26q0-8.5-6.5-20l27.5-12.5q9 14 9 32.5 0 26.5-16.75 45.75T735 463m-71.5-123L648 314.5q11.5-7.5 17-16t5.5-20.5q0-18.5-15.5-30.5l21.5-21.5q23.5 18 23.5 50.5 0 19-9.5 35.5t-27 28"/></svg>