<svg xmlns="http://www.w3.org/2000/svg" viewBox="-32 105 1089 990"><path d="M512 1083c-96 0-173.667-3.92-233-11.75s-108.333-20.42-147-37.75c-52.333-23.67-92.833-57.25-121.5-100.75q-43-65.25-43-158.75 0-92 43.75-195.75T145.5 362q43-53.5 92.75-100.25t100-82 95.25-55T512 105t78.5 19.75 95.25 55 100 82T878.5 362q90.5 112.5 134.25 216.25c29.17 69.167 43.75 134.417 43.75 195.75 0 62.333-14.33 115.25-43 158.75-28.667 43.5-69.167 77.08-121.5 100.75-38.333 17.33-87.25 29.92-146.75 37.75S608 1083 512 1083M81 750v-38q19-1 36.75-3t36.75-7l9 37.5q-20 7-40.25 8.75T81 750m257 197.5q9 0 14.5-5.75t5.5-14.25v-223q0-9 3-12t12-3h25q8.5 0 14.5-5.75t6-13.75q0-8.5-6-14t-14.5-5.5h-35q-45 0-45 45V927q0 9 5.75 14.75T338 947.5m174 96.5c62.333 0 116.25-1.58 161.75-4.75q68.25-4.755 117.25-15T875.5 998q70-32 105.5-88.25c23.67-37.5 35.5-82.75 35.5-135.75q0-87.5-42.75-185.25T847.5 387q-39.5-49.5-86.25-93.5T668 215.75 580.75 163 512 144t-68.75 19T356 215.75t-93 77.75-86.5 93.5Q93 491 50.25 588.75T7.5 774q0 79.5 35.5 135.75T148.5 998q36 16.005 84.75 26.25t117 15c45.5 3.17 99.417 4.75 161.75 4.75m-3 51q-58.5 0-100.25-1.5t-77.25-4.5c-23.667-2-49-4.67-76-8l-9-275.5v-242q67.5 2 131 3.25t131 1.25q134 0 269-4.5v242l-9 275.5c-27 3.33-52.833 6-77.5 8q-37 3-80 4.5t-102 1.5M282 491q-39-13.5-71.5-42.5l24-30Q249 430 264.75 439T298 456.5Zm49.5-116 4-38q15 1.5 30 1.5 21.5 0 44-3l5 38a477 477 0 0 1-22.25 3.5Q381 378.5 370 378.5q-9.5 0-19-.75T331.5 375M841 776l-2-38.5q19.5-1 36.75-4t35.75-8.5l12.5 37q-20 8-40.75 11T841 776M456 286l-10.5-37q20-5 36.75-12t33.25-16.5L534 253q-17.5 12.5-37 20.75T456 286m386.5 352L821 605q29-18 57-47.5l29.5 26q-27 32-65 54.5M657 426.5 646.5 389q19-5 35.25-12t32.75-16.5L734 394q-35 23.5-77 32.5"/></svg>